{"glyphs":{"0":{"ha":825,"x_min":0,"x_max":0,"o":""},"1":{"ha":329,"x_min":0,"x_max":0,"o":""},"2":{"ha":693,"x_min":0,"x_max":0,"o":""},"3":{"ha":720,"x_min":0,"x_max":0,"o":""},"4":{"ha":825,"x_min":0,"x_max":0,"o":""},"5":{"ha":750,"x_min":0,"x_max":0,"o":""},"6":{"ha":921,"x_min":0,"x_max":0,"o":""},"7":{"ha":890,"x_min":0,"x_max":0,"o":""},"8":{"ha":821,"x_min":0,"x_max":0,"o":""},"9":{"ha":750,"x_min":0,"x_max":0,"o":""},"\u0000":{"ha":0,"x_min":0,"x_max":0,"o":""}," ":{"ha":408,"x_min":0,"x_max":0,"o":""},"!":{"ha":456,"x_min":0,"x_max":298,"o":"m 225 1270 l 233 1270 q 298 1199 286 1270 q 179 277 187 302 q 122 239 153 239 l 109 239 q 46 307 59 239 q 163 1223 141 1067 q 225 1270 187 1270 m 84 206 q 152 171 122 201 q 179 87 179 120 q 92 0 169 0 q 5 65 32 0 q 0 95 0 79 q 57 201 0 164 q 84 206 79 203 z "},"\"":{"ha":456,"x_min":0,"x_max":0,"o":""},"#":{"ha":1283,"x_min":0,"x_max":0,"o":""},"$":{"ha":688,"x_min":0,"x_max":0,"o":""},"%":{"ha":1092,"x_min":0,"x_max":0,"o":""},"&":{"ha":1482,"x_min":0,"x_max":0,"o":""},"'":{"ha":264,"x_min":0,"x_max":0,"o":""},"(":{"ha":3222,"x_min":0,"x_max":3331,"o":"m 60 800 l 76 800 q 241 732 102 794 q 792 567 450 648 q 1907 439 1375 439 l 2010 439 q 3130 635 2629 439 q 3252 689 3238 689 l 3274 689 q 3328 635 3328 672 q 3331 624 3328 629 q 3223 526 3331 564 q 2808 388 3118 468 q 1956 298 2402 298 q 347 545 1128 298 q 24 678 120 627 q 0 735 0 703 l 0 738 q 60 800 14 800 z "},")":{"ha":3904,"x_min":-14,"x_max":3890,"o":"m 2105 920 q 2127 917 2120 917 q 2146 920 2135 917 q 3231 787 2641 920 q 3844 589 3559 705 q 3890 529 3890 565 l 3890 515 q 3822 453 3890 464 q 3621 526 3794 460 q 2067 781 2903 781 q 789 575 1521 781 q 76 315 422 464 q 54 312 66 312 q -14 380 -14 319 q 87 467 -14 436 q 1031 781 445 631 q 2105 920 1616 920 z "},"*":{"ha":559,"x_min":0,"x_max":0,"o":""},"+":{"ha":796,"x_min":0,"x_max":0,"o":""},",":{"ha":325,"x_min":0,"x_max":0,"o":""},"-":{"ha":688,"x_min":0,"x_max":0,"o":""},".":{"ha":325,"x_min":0,"x_max":0,"o":""},"/":{"ha":438,"x_min":0,"x_max":0,"o":""},":":{"ha":325,"x_min":0,"x_max":0,"o":""},";":{"ha":325,"x_min":0,"x_max":0,"o":""},"<":{"ha":3961,"x_min":0,"x_max":0,"o":""},"=":{"ha":688,"x_min":0,"x_max":0,"o":""},">":{"ha":4005,"x_min":0,"x_max":0,"o":""},"?":{"ha":614,"x_min":14,"x_max":605,"o":"m 312 1229 l 315 1229 q 583 1061 517 1229 q 605 955 605 1003 q 415 670 605 811 q 277 515 286 561 q 236 420 262 500 q 228 363 228 387 l 241 296 l 241 290 q 190 231 241 248 q 174 228 186 228 q 92 323 112 228 q 90 361 90 346 l 90 363 q 209 667 90 507 q 385 825 293 753 q 464 949 464 897 l 464 966 q 415 1066 464 1022 q 309 1090 363 1090 q 168 1012 202 1090 q 149 901 149 961 q 87 852 127 852 l 79 852 q 14 928 14 862 l 14 930 q 157 1196 14 1109 q 312 1229 227 1229 m 228 195 q 304 122 304 186 l 304 109 q 250 8 304 39 q 214 0 221 0 q 136 68 159 0 l 136 90 q 193 187 136 144 q 228 195 218 195 z "},"@":{"ha":1151,"x_min":0,"x_max":0,"o":""},"A":{"ha":980,"x_min":0,"x_max":1112,"o":"m 420 730 l 437 730 q 670 589 619 730 q 692 461 692 508 q 686 363 686 394 q 770 152 686 191 q 803 146 789 146 q 960 342 872 146 q 1044 439 987 439 q 1112 377 1112 427 l 1112 369 q 987 111 1100 272 q 811 8 899 8 l 789 8 q 591 141 673 8 q 575 184 575 180 q 247 0 425 0 l 233 0 q 16 168 84 0 q 0 279 0 235 q 106 575 0 428 q 420 730 241 730 m 141 290 l 141 260 q 214 141 141 172 q 244 138 233 138 q 448 250 349 138 q 553 464 520 340 q 510 575 541 575 q 429 591 485 591 q 163 396 247 591 q 141 290 141 334 z "},"B":{"ha":665,"x_min":-14,"x_max":667,"o":"m 239 1305 q 385 1090 385 1305 q 127 635 385 823 q 130 581 130 598 l 130 543 l 136 543 q 363 708 221 708 q 600 589 492 708 q 667 380 667 488 l 667 377 q 491 60 667 189 q 304 5 403 5 q 163 30 239 5 q 111 0 141 0 l 109 0 q 38 62 52 0 q -11 651 -11 431 q -14 662 -14 651 q 119 1261 -14 1155 q 239 1305 172 1305 m 130 822 q 244 1074 244 936 l 244 1109 q 236 1166 244 1138 q 136 903 166 1166 q 130 822 130 852 m 184 171 q 304 144 249 144 q 518 309 447 144 q 529 382 529 343 q 420 556 529 498 q 366 567 389 567 l 355 567 q 214 358 273 567 q 184 171 184 229 z "},"C":{"ha":768,"x_min":0,"x_max":857,"o":"m 385 776 l 401 776 q 510 681 483 776 q 515 637 515 669 q 467 439 515 540 q 418 415 441 415 l 407 415 q 345 486 355 415 q 377 635 377 604 q 201 494 251 590 q 138 282 138 393 q 212 149 138 170 q 282 138 241 141 q 656 326 450 138 q 741 418 687 357 q 784 437 763 437 l 798 437 q 857 374 844 437 l 857 366 q 659 144 857 310 q 279 0 452 0 q 19 160 83 0 q 0 279 0 222 l 0 290 q 160 667 0 493 q 201 700 163 667 q 385 776 313 776 z "},"D":{"ha":898,"x_min":0,"x_max":1006,"o":"m 646 1275 l 665 1275 q 765 1158 732 1275 q 776 1025 776 1089 l 776 1017 q 637 315 776 680 q 610 252 610 260 q 697 138 648 138 q 860 339 762 138 q 933 420 882 420 l 944 420 q 1006 350 998 420 q 890 114 998 277 q 692 0 798 0 q 521 114 591 0 q 293 0 418 0 q 35 149 123 0 q 0 298 0 217 l 0 317 q 141 665 0 515 q 328 741 232 741 q 431 730 372 741 q 488 1093 431 862 q 646 1275 550 1275 m 632 1082 q 567 635 567 876 l 567 543 l 570 543 q 637 1028 637 816 q 635 1082 637 1036 l 632 1082 m 138 301 q 250 144 138 180 l 296 138 q 458 269 380 138 q 426 589 426 448 q 347 600 381 600 l 312 600 q 184 494 252 600 q 138 301 138 408 z "},"E":{"ha":781,"x_min":-41,"x_max":895,"o":"m 393 768 q 616 651 544 768 q 640 559 640 609 l 640 553 q 496 361 640 422 q 388 342 452 342 q 141 418 257 342 q 98 260 98 332 l 98 255 q 266 138 98 138 l 271 138 q 781 423 566 138 q 819 437 806 437 l 838 437 q 892 382 892 420 l 895 369 q 768 203 895 322 q 540 52 659 100 q 290 0 398 0 l 252 0 q -19 146 60 0 q -41 250 -41 199 l -41 274 q 43 526 -41 385 l 43 529 q 3 627 3 602 l 3 646 q 65 705 3 692 l 68 705 q 144 643 119 705 q 393 768 291 768 m 228 526 q 391 480 309 480 q 502 545 479 480 l 502 556 q 410 627 502 615 l 385 627 q 236 537 341 627 l 228 526 z "},"F":{"ha":602,"x_min":0,"x_max":719,"o":"m 279 1325 q 464 1130 422 1325 l 469 1062 q 339 723 469 891 q 174 606 245 632 l 174 604 q 396 332 319 503 q 420 248 407 302 q 461 243 446 243 l 469 243 q 591 387 551 243 q 646 419 618 419 l 656 419 q 719 357 719 406 l 719 346 q 656 199 713 281 q 475 104 577 104 l 437 104 q 439 9 439 30 q 345 -357 439 -283 q 296 -373 308 -373 l 274 -373 q 152 -278 215 -373 q 81 -115 119 -231 q 0 525 0 195 l 0 606 q 114 1217 0 1010 q 279 1325 186 1325 m 144 747 l 146 747 q 315 964 258 802 q 328 1048 328 1018 l 328 1076 q 290 1184 328 1148 l 279 1184 q 168 954 222 1184 q 144 747 144 792 m 149 321 l 149 316 q 212 -66 168 92 q 277 -213 245 -172 q 298 -28 298 -125 l 298 -4 q 301 9 298 5 l 298 26 l 298 47 q 282 167 298 167 q 157 313 177 263 q 152 321 152 313 l 149 321 z "},"G":{"ha":808,"x_min":0,"x_max":898,"o":"m 366 709 q 578 487 519 709 l 578 463 l 575 449 q 643 213 603 449 l 646 213 q 787 397 770 385 q 822 411 806 411 l 838 411 q 898 343 886 411 l 898 340 q 803 194 898 311 l 675 12 q 692 -224 692 -110 q 545 -628 692 -551 q 480 -644 513 -644 l 472 -644 q 312 -500 361 -644 q 301 -422 304 -466 q 429 -107 301 -286 q 532 50 448 -72 q 524 102 529 56 l 521 102 q 307 -28 442 -28 l 293 -28 q 35 126 134 -28 q 0 273 0 200 q 176 631 0 450 q 366 709 269 709 m 138 275 q 266 113 138 151 l 298 110 l 301 110 q 453 313 413 110 q 469 419 464 399 q 426 511 452 426 q 361 571 397 571 q 174 397 274 571 q 138 275 138 327 m 442 -414 l 442 -433 q 477 -506 448 -500 q 529 -427 500 -506 q 553 -189 553 -352 l 551 -175 q 442 -414 442 -326 z "},"H":{"ha":1091,"x_min":0,"x_max":1213,"o":"m 393 1267 l 401 1267 q 467 1196 454 1267 l 388 537 q 610 705 503 705 l 632 705 q 770 627 707 705 q 819 439 819 555 l 817 423 l 803 193 q 825 127 803 127 q 836 125 831 127 q 1082 374 984 125 q 1139 412 1107 412 l 1150 412 q 1213 350 1213 399 l 1213 345 q 1082 103 1199 243 q 836 -14 972 -14 q 684 81 726 -14 q 665 195 665 125 l 678 434 l 678 456 q 616 567 678 567 q 461 385 564 567 q 328 49 378 211 q 266 0 309 0 l 258 0 q 193 68 207 0 l 269 716 q 68 572 129 572 q 0 635 0 585 l 0 646 q 84 732 0 688 q 236 909 206 840 q 331 1218 286 1008 q 393 1267 353 1267 z "},"I":{"ha":490,"x_min":-68,"x_max":602,"o":"m 130 955 q 198 887 198 940 q 100 765 170 765 l 98 765 q 35 825 35 778 l 35 841 q 130 955 66 955 m 43 705 l 62 705 q 122 646 122 692 l 122 632 l 81 423 q 71 282 73 355 q 103 149 71 187 q 179 138 136 138 q 450 347 340 138 q 534 434 481 434 l 537 434 q 602 372 602 422 l 602 363 q 488 152 597 295 q 182 0 351 0 l 174 0 q -41 119 3 0 q -68 288 -68 185 q -5 673 -68 456 q 43 705 22 705 z "},"J":{"ha":197,"x_min":-298,"x_max":198,"o":"m 38 1015 l 46 1015 q 114 933 114 1003 q 122 895 117 933 q 52 822 111 822 q -24 928 -15 822 l -27 944 q 38 1015 -15 1015 m 62 708 l 81 708 q 133 665 112 708 q 193 206 165 529 q 198 38 198 109 l 198 0 q 19 -450 198 -360 q -81 -475 -41 -475 q -285 -323 -220 -475 q -298 -220 -298 -274 q -90 269 -298 4 q -33 293 -65 293 q 33 231 33 281 l 33 228 q -24 127 33 189 q -160 -222 -160 -75 q -109 -331 -160 -304 l -90 -334 l -73 -334 q 30 -228 -13 -334 q 60 19 60 -146 q 0 640 60 271 q 62 708 13 708 z "},"K":{"ha":979,"x_min":-7,"x_max":1086,"o":"m 408 1282 l 416 1282 q 481 1214 467 1282 l 419 544 l 419 541 l 422 541 q 636 755 529 755 l 647 755 q 804 614 766 755 q 807 576 804 610 q 650 308 807 429 q 547 270 608 286 q 699 134 627 134 l 718 134 q 964 392 840 134 q 1013 416 990 416 l 1024 416 q 1086 351 1074 416 q 970 134 1085 289 q 712 -7 844 -7 q 425 199 549 -7 l 422 199 q 351 23 364 25 q 308 4 331 4 l 300 4 q 235 72 249 4 l 300 766 l 300 769 l 297 769 q 121 598 222 660 q 61 576 87 576 q -7 639 -7 589 l -7 650 q 72 731 -7 692 q 221 905 179 820 q 340 1208 289 1029 q 408 1282 353 1282 m 642 617 q 541 473 581 559 q 511 408 511 416 l 514 408 q 663 541 604 408 q 669 576 665 576 q 642 617 665 617 z "},"L":{"ha":763,"x_min":0,"x_max":873,"o":"m 369 1261 q 439 1191 439 1248 q 361 486 361 758 q 439 152 361 214 q 507 138 458 144 q 722 336 632 138 q 798 426 749 426 l 811 426 q 873 358 861 426 q 754 122 854 255 q 505 0 642 0 q 255 201 309 0 q 222 486 222 313 q 231 694 222 574 q 65 575 129 575 q 0 635 0 588 l 0 651 q 60 719 0 691 q 228 996 157 791 q 304 1215 269 1099 q 369 1261 330 1261 z "},"M":{"ha":1491,"x_min":-54,"x_max":1592,"o":"m 401 722 q 610 532 553 722 l 616 532 q 814 705 687 660 q 890 716 852 716 q 1042 605 1006 716 q 1055 513 1055 564 q 1028 241 1055 489 q 1025 198 1025 241 q 1050 141 1025 141 q 1072 138 1065 138 q 1457 401 1250 138 q 1516 442 1484 442 l 1535 442 q 1590 388 1590 425 l 1592 374 q 1424 160 1592 321 q 1072 0 1244 0 q 887 201 887 0 l 887 209 q 914 486 887 252 l 914 534 q 892 578 914 578 q 629 198 732 578 q 567 157 602 157 q 499 209 519 157 q 496 220 499 215 q 499 304 499 270 l 499 315 q 420 581 499 533 q 401 583 412 581 q 146 247 295 583 l 73 41 q 19 11 47 11 l 11 11 q -54 79 -40 11 q 0 686 -9 686 q 49 719 28 719 l 68 719 q 130 651 118 719 l 119 507 l 119 505 l 122 505 q 401 722 251 722 z "},"N":{"ha":871,"x_min":-75,"x_max":972,"o":"m 50 716 l 69 716 q 132 646 119 716 l 123 578 q 330 713 224 713 q 479 610 429 713 q 514 263 507 587 q 574 141 521 141 l 606 138 q 848 396 743 138 q 899 423 874 423 l 910 423 q 972 353 962 423 q 886 168 967 298 q 598 0 765 0 q 389 157 436 0 q 368 486 368 248 q 330 572 358 572 q 145 315 254 572 q 56 46 104 221 q -1 11 28 11 l -12 11 q -72 60 -52 11 q -75 76 -75 64 q 1 684 -15 631 q 50 716 29 716 z "},"O":{"ha":848,"x_min":0,"x_max":939,"o":"m 345 711 q 505 673 418 711 q 621 600 563 673 q 659 437 659 534 q 637 298 659 373 l 640 298 q 803 374 732 298 q 873 420 833 420 q 939 358 939 408 l 939 345 q 825 212 939 293 q 594 157 729 157 q 578 160 580 160 q 285 0 475 0 q 54 122 145 0 q 0 315 0 201 q 130 632 0 483 q 247 694 215 693 q 345 711 282 711 m 138 312 q 250 144 138 179 q 296 138 285 138 q 429 195 376 138 q 296 431 296 280 q 328 572 296 490 q 212 515 275 572 q 138 312 138 410 m 437 445 l 437 420 q 494 320 437 355 l 496 320 q 518 407 505 320 l 521 445 q 491 534 513 534 l 486 534 q 437 445 449 534 z "},"P":{"ha":574,"x_min":-190,"x_max":570,"o":"m 59 709 l 76 709 q 139 635 130 709 l 139 618 q 304 704 203 704 l 307 704 q 556 515 481 704 q 570 410 570 455 q 401 52 570 229 q 199 -28 296 -28 q 176 -31 183 -31 q 44 -5 122 -31 q -53 -368 5 -140 q -113 -402 -83 -402 q -190 -328 -190 -393 q -1 667 -21 573 q 59 709 26 709 m 87 135 q 173 118 130 118 l 190 118 q 413 338 327 118 q 425 415 422 373 q 345 552 425 513 q 302 558 317 558 q 173 370 248 558 q 87 135 133 288 z "},"Q":{"ha":911,"x_min":0,"x_max":1034,"o":"m 339 704 q 562 579 465 704 q 613 430 613 478 q 594 381 613 406 q 602 346 602 353 q 553 172 602 334 q 556 170 556 172 l 570 172 l 581 172 q 868 327 772 172 q 952 414 922 412 l 971 414 q 1034 346 1021 414 q 903 153 1034 292 q 686 45 829 75 q 600 34 637 34 q 708 -292 708 -180 q 597 -449 708 -413 q 548 -454 560 -454 q 369 -294 414 -454 q 358 -180 358 -222 q 380 26 358 -104 q 239 -12 304 -12 l 233 -12 q 22 132 93 -12 q 0 232 0 186 l 0 256 q 160 620 0 424 q 339 704 246 704 m 138 254 l 138 240 q 209 129 138 161 l 241 126 q 396 216 311 126 q 458 340 437 270 q 483 397 458 362 q 431 517 448 517 q 350 563 390 563 l 339 563 q 152 335 244 563 q 138 254 138 286 m 502 -91 q 499 -164 499 -141 l 499 -205 q 540 -313 499 -299 l 562 -313 q 567 -308 567 -313 l 567 -281 q 507 -91 567 -231 l 502 -91 z "},"R":{"ha":714,"x_min":-14,"x_max":830,"o":"m 206 979 q 328 903 296 979 q 336 863 334 891 q 228 670 336 783 q 355 637 264 654 q 448 499 448 588 q 388 266 448 467 q 377 187 380 227 q 415 141 377 141 l 442 141 q 681 339 564 141 q 757 412 713 412 l 770 412 q 830 347 817 412 l 830 342 q 692 119 824 276 q 431 0 566 0 q 255 103 301 0 q 239 193 239 140 q 301 469 239 269 q 307 499 307 480 l 307 502 q 228 521 307 509 q 109 581 165 543 q 54 562 75 562 q -14 624 -14 574 l -14 635 q 22 692 -14 664 q 5 781 5 738 q 141 968 5 916 q 206 979 172 977 m 144 787 q 182 836 179 819 l 179 836 q 144 792 162 836 l 144 787 z "},"S":{"ha":610,"x_min":-81,"x_max":697,"o":"m 326 713 l 339 713 q 448 646 403 713 q 469 559 469 602 q 358 250 469 442 q 312 228 332 228 l 301 228 q 239 288 239 241 l 239 296 q 285 407 239 323 q 328 551 328 506 l 328 572 l 323 572 q 160 434 208 530 q 152 401 152 410 q 304 146 152 342 q 363 49 336 98 q 502 146 418 64 q 583 258 537 190 q 632 274 612 274 q 697 206 687 274 l 697 201 q 567 16 697 151 q 399 -87 487 -57 l 401 -100 q 190 -380 401 -291 q 111 -393 142 -393 l 98 -393 q -73 -271 -27 -393 q -81 -217 -81 -239 q -3 -62 -81 -132 q 155 3 40 -28 q 222 19 222 13 q 46 277 92 199 q 14 388 14 347 l 14 410 q 144 629 14 513 q 326 713 254 713 m 60 -214 l 60 -225 q 106 -255 60 -255 q 236 -182 173 -255 q 260 -119 260 -145 q 60 -214 60 -149 z "},"T":{"ha":831,"x_min":0,"x_max":941,"o":"m 372 1274 l 374 1274 q 437 1214 437 1261 l 437 1200 q 377 956 437 1192 q 328 707 347 822 l 431 707 q 518 663 501 707 q 524 642 524 653 l 524 631 q 448 566 524 577 l 309 566 q 301 403 301 451 q 369 153 301 208 q 477 118 422 118 q 822 389 636 118 q 879 411 848 411 q 941 349 941 397 l 941 338 q 760 102 941 281 q 472 -20 614 -20 q 252 72 349 -20 q 163 397 163 174 l 163 411 q 171 566 163 493 l 92 566 q 5 609 22 566 q 0 631 0 619 l 0 642 q 76 707 0 695 l 184 707 q 203 807 191 707 q 304 1227 250 1039 q 372 1274 326 1274 z "},"U":{"ha":947,"x_min":-61,"x_max":1051,"o":"m 39 716 l 58 716 q 118 656 118 703 l 118 646 q 91 499 118 634 q 77 342 80 409 q 145 144 77 182 l 172 141 l 183 141 q 338 336 253 141 q 422 640 385 450 q 479 700 440 700 l 498 700 q 560 632 548 700 l 560 624 q 658 163 560 271 l 685 155 q 924 401 808 155 q 972 434 951 434 l 991 434 q 1051 372 1038 434 l 1051 361 q 902 114 1033 267 q 685 16 797 16 q 460 263 522 16 q 430 203 456 262 q 172 0 322 0 q -20 127 47 0 q -61 342 -61 211 q -12 678 -61 491 q 39 716 14 716 z "},"V":{"ha":574,"x_min":0,"x_max":659,"o":"m 60 711 l 79 711 q 157 586 130 711 q 271 239 214 426 l 274 239 q 524 667 308 289 q 586 711 554 711 l 597 711 q 659 646 647 711 q 591 507 659 610 q 304 16 340 66 q 260 0 278 0 l 252 0 q 174 98 196 0 q 0 637 0 617 l 0 651 q 60 711 13 711 z "},"W":{"ha":1436,"x_min":-41,"x_max":1549,"o":"m 54 722 l 73 722 q 136 654 123 722 q 98 336 98 468 q 146 155 98 195 q 195 144 170 144 q 423 515 349 144 q 480 591 423 572 l 502 591 q 564 532 546 591 l 564 529 q 562 448 562 471 q 646 146 562 208 q 667 141 656 141 l 692 141 q 906 488 833 141 q 928 675 920 582 q 982 722 952 722 l 1001 722 q 1058 678 1039 722 q 1069 537 1063 671 q 1115 369 1085 437 q 1261 266 1167 266 q 1427 404 1355 266 q 1476 429 1453 429 l 1487 429 q 1549 358 1539 429 q 1430 184 1546 295 q 1259 127 1348 127 q 1001 293 1090 127 q 966 209 998 293 q 678 0 858 0 q 461 182 525 0 l 456 182 q 195 5 357 5 q -11 144 45 5 q -41 328 -41 223 l -41 350 q 3 684 -41 505 q 54 722 28 722 z "},"X":{"ha":799,"x_min":-81,"x_max":914,"o":"m 60 711 l 79 711 q 149 613 126 711 q 239 412 195 492 l 241 412 q 551 705 541 705 q 575 711 568 711 l 586 711 q 648 643 636 711 q 548 518 648 600 l 317 290 l 317 288 q 548 141 428 141 q 787 396 696 141 q 849 431 812 431 q 914 369 914 420 l 914 358 q 798 125 906 273 q 545 3 686 3 q 247 155 384 3 q 217 193 217 188 q 27 11 168 149 q -8 0 2 0 l -14 0 q -81 68 -81 6 l -81 73 q 8 184 -81 109 l 136 312 q 0 632 44 471 l 0 651 q 60 711 13 711 z "},"Y":{"ha":844,"x_min":-61,"x_max":924,"o":"m 47 708 l 66 708 q 126 648 126 695 l 126 637 q 99 515 126 629 q 77 326 77 420 q 205 136 77 136 q 427 553 370 136 q 468 692 435 692 q 498 703 479 703 l 517 703 q 576 640 554 703 q 633 279 633 412 l 636 279 q 845 418 823 418 l 856 418 q 924 350 924 405 q 845 260 924 302 q 633 98 683 142 q 579 -174 633 -3 q 479 -336 542 -259 q 254 -475 355 -475 l 245 -475 q 126 -374 155 -475 q 121 -334 121 -340 q 340 30 121 -170 l 349 41 l 346 41 q 205 -3 287 -3 l 202 -3 q -45 195 15 -3 q -61 315 -61 250 l -61 347 q -4 670 -61 484 q 47 708 22 708 m 495 241 q 419 106 495 217 l 422 106 l 498 171 l 498 241 l 495 241 m 262 -323 l 262 -334 q 457 -106 378 -283 q 473 -35 473 -48 q 262 -323 262 -226 z "},"Z":{"ha":709,"x_min":0,"x_max":773,"o":"m 355 846 q 420 784 420 833 l 420 768 q 307 472 420 755 q 290 429 290 437 l 290 426 l 293 426 q 543 323 434 426 q 700 407 673 407 l 708 407 q 773 336 762 407 q 673 241 773 288 q 610 198 611 201 q 635 43 635 122 q 515 -290 635 -146 q 263 -407 402 -407 q 76 -301 139 -407 q 62 -228 62 -264 l 62 -217 q 423 239 62 -22 l 423 244 q 285 288 361 288 l 274 288 q 184 277 229 288 q 114 339 114 290 l 114 350 q 171 510 114 373 q 220 635 220 627 q 71 570 91 570 l 68 570 q 0 632 0 583 l 0 643 q 95 727 0 694 q 350 846 323 846 l 355 846 m 201 -228 l 201 -231 q 258 -266 208 -266 l 279 -266 q 439 -163 362 -266 q 494 33 494 -68 l 494 57 q 486 114 494 114 q 201 -228 201 -101 z "},"[":{"ha":3860,"x_min":0,"x_max":0,"o":""},"\\":{"ha":438,"x_min":0,"x_max":0,"o":""},"]":{"ha":3939,"x_min":0,"x_max":0,"o":""},"^":{"ha":688,"x_min":0,"x_max":0,"o":""},"_":{"ha":907,"x_min":0,"x_max":0,"o":""},"`":{"ha":694,"x_min":0,"x_max":0,"o":""},"a":{"ha":925,"x_min":-14,"x_max":1050,"o":"m 399 727 l 407 727 q 632 553 566 727 q 646 477 646 496 q 640 407 640 433 l 640 355 q 705 149 640 182 l 724 149 q 860 296 775 149 q 917 412 895 361 q 979 442 939 442 q 1050 372 1050 437 q 944 149 1050 306 q 713 0 838 0 q 545 103 609 0 q 515 184 515 164 l 513 184 q 220 3 378 3 l 214 3 q 5 138 71 3 q -14 239 -14 195 q 130 578 -14 389 q 399 727 262 727 m 136 239 l 136 217 q 198 152 136 172 l 241 152 q 377 252 292 152 q 477 431 441 341 q 496 488 496 482 q 429 575 496 543 q 410 581 415 581 q 168 361 282 581 q 136 239 136 291 z "},"b":{"ha":646,"x_min":0,"x_max":768,"o":"m 274 1291 q 358 1256 315 1291 q 401 1120 401 1201 q 304 708 401 1003 l 307 708 q 366 716 339 716 q 488 673 435 711 q 605 407 605 571 l 605 372 l 648 426 q 697 442 671 442 q 765 385 765 433 q 768 369 768 385 q 651 206 768 309 q 521 149 585 158 q 260 0 408 0 q 33 241 89 0 q 0 515 0 365 q 125 1177 0 877 q 266 1289 191 1289 q 274 1291 266 1291 m 250 1093 q 174 827 214 1015 q 168 781 174 815 l 168 776 l 171 776 q 252 1090 252 1029 l 252 1093 l 250 1093 m 165 773 l 165 768 l 168 768 l 168 773 l 165 773 m 336 548 l 336 524 q 420 331 336 425 l 442 315 l 445 315 q 458 410 456 355 q 363 567 458 534 l 350 570 q 336 548 336 565 m 198 439 q 160 347 193 416 q 225 163 182 208 q 252 149 243 149 l 279 149 q 358 193 311 149 q 203 418 246 272 q 201 439 201 437 l 198 439 z "},"c":{"ha":606,"x_min":0,"x_max":746,"o":"m 388 722 l 407 722 q 543 616 506 722 q 548 575 548 584 q 515 439 533 439 q 464 412 515 418 q 385 486 385 412 q 401 575 396 534 q 228 483 304 575 q 149 288 149 389 l 149 274 q 285 149 149 174 l 312 149 q 613 407 484 149 q 675 437 635 437 q 746 363 738 437 q 624 152 736 288 q 453 30 509 43 q 301 0 362 0 q 19 176 111 0 q 0 288 0 250 q 165 632 0 475 q 388 722 280 722 z "},"d":{"ha":929,"x_min":0,"x_max":1072,"o":"m 697 1308 q 781 1270 737 1308 q 827 1112 827 1201 l 827 1031 q 673 358 827 785 q 600 214 616 238 q 675 152 633 152 l 705 152 q 863 293 777 167 q 936 426 908 360 q 998 456 961 456 q 1072 380 1065 456 l 1072 377 q 947 155 1057 303 q 760 14 839 31 q 689 3 720 3 q 502 90 579 3 q 301 0 401 0 q 65 111 161 0 q 0 320 0 193 q 138 670 0 532 q 298 727 220 727 l 323 727 q 429 705 359 727 l 429 708 q 494 1047 429 793 q 697 1308 576 1308 m 678 1115 q 578 735 610 958 q 559 486 564 629 l 559 483 l 562 483 q 681 1093 681 814 l 681 1115 l 678 1115 m 149 290 q 266 152 149 192 q 296 149 284 149 l 312 149 q 439 236 355 149 q 410 491 410 361 q 377 562 396 562 q 304 581 353 581 q 149 363 190 581 l 149 290 z "},"e":{"ha":692,"x_min":0,"x_max":811,"o":"m 347 724 l 363 724 q 513 608 484 724 q 518 575 518 589 l 518 564 q 165 320 518 372 q 149 315 149 320 q 195 201 149 229 q 358 149 253 149 q 602 301 466 149 l 694 434 q 743 445 725 445 q 811 374 804 445 q 624 111 811 300 q 342 0 483 0 q 84 100 195 0 q 0 326 0 174 q 258 711 0 602 q 347 724 321 724 m 187 475 l 187 472 q 372 567 372 513 q 350 578 370 578 q 187 475 263 578 z "},"f":{"ha":637,"x_min":-41,"x_max":770,"o":"m 437 1261 q 556 1202 506 1261 q 600 1080 600 1145 q 247 420 600 869 q 363 347 300 420 q 442 119 418 277 q 632 372 543 170 q 700 407 660 407 q 768 355 751 407 l 770 336 q 627 79 762 252 q 448 -38 536 -17 q 388 -304 448 -161 q 201 -448 313 -448 l 182 -448 q 24 -369 92 -448 q -41 -84 -41 -273 l -41 -35 q 127 873 -41 326 q 285 1177 215 1102 q 437 1261 360 1261 m 203 610 l 203 608 l 206 608 q 450 1088 450 949 q 434 1112 450 1104 q 363 1034 402 1098 q 247 762 309 939 q 203 610 231 717 m 225 271 l 225 269 q 282 141 225 213 l 293 133 q 225 271 254 271 m 117 119 q 106 -68 109 62 q 155 -290 106 -244 q 195 -301 186 -301 q 296 -92 254 -301 l 296 -33 q 160 54 210 -9 q 119 119 129 92 l 117 119 z "},"g":{"ha":808,"x_min":-20,"x_max":902,"o":"m 378 652 q 582 530 505 652 q 620 384 620 449 l 620 354 q 604 208 620 310 q 712 292 644 234 q 823 373 790 373 l 831 373 q 902 313 888 373 l 902 302 q 802 175 902 250 q 568 12 707 87 q 449 -338 509 -240 q 227 -495 353 -495 q 94 -430 150 -495 q 45 -297 45 -368 q 170 -66 45 -191 q 50 9 122 -66 q -20 213 -20 106 q 110 519 -20 346 q 378 652 237 652 m 129 210 l 129 194 q 205 77 129 118 q 229 72 215 72 q 416 210 326 72 q 473 368 473 323 q 362 503 473 503 q 172 349 271 503 q 129 210 129 266 m 194 -294 l 194 -300 q 227 -346 201 -346 l 235 -346 q 392 -85 305 -346 q 194 -294 194 -220 z "},"h":{"ha":907,"x_min":-14,"x_max":1025,"o":"m 366 1299 q 502 1196 452 1299 q 515 1115 510 1170 q 382 719 515 994 q 439 730 414 730 l 475 730 q 670 581 625 730 q 675 526 675 542 q 616 212 675 478 l 616 176 q 643 149 619 149 l 654 149 q 787 258 693 149 q 887 418 836 328 q 952 453 913 453 q 1025 382 1025 441 q 857 114 1025 318 q 643 0 750 0 q 477 119 528 0 q 467 190 467 165 q 526 496 467 235 l 526 540 q 464 583 526 583 q 182 231 313 583 q 125 57 155 165 q 60 16 104 16 q -11 65 13 16 q -14 95 -14 80 q 73 800 -14 272 q 190 1175 128 1056 q 366 1299 262 1299 m 206 711 l 206 708 l 209 708 q 366 1131 366 1000 q 358 1150 361 1150 q 301 1063 337 1141 q 212 738 241 909 l 206 711 z "},"i":{"ha":526,"x_min":0,"x_max":654,"o":"m 206 930 q 279 860 279 920 q 241 768 268 793 q 187 749 220 749 q 119 808 119 756 q 117 819 117 813 q 206 930 134 930 m 152 730 q 220 678 205 730 q 222 662 222 664 q 155 388 155 431 q 149 342 149 366 l 149 279 q 220 152 149 174 q 233 149 224 149 l 250 149 q 391 241 296 149 q 526 426 476 342 q 583 450 553 450 q 654 380 654 439 q 472 114 654 307 q 236 0 351 0 q 43 114 114 0 q 0 298 0 189 q 90 703 0 480 q 152 730 109 730 z "},"j":{"ha":419,"x_min":-210,"x_max":536,"o":"m 218 840 q 292 769 292 829 l 292 745 q 240 655 292 677 q 213 650 216 650 q 153 682 153 663 q 140 726 144 682 q 180 826 140 793 q 218 840 190 834 m 189 652 q 254 601 233 652 q 270 273 267 567 l 270 191 q 408 351 354 265 q 463 373 422 373 l 465 373 q 530 321 530 367 q 536 302 536 321 q 425 134 536 251 q 316 39 351 55 l 267 7 q 199 -327 267 -172 q 66 -460 139 -423 q -31 -481 3 -481 q -126 -452 -100 -473 q -210 -294 -210 -387 l -210 -270 q -75 4 -210 -140 q 121 104 66 100 l 123 110 l 123 313 l 121 327 q 37 240 69 240 q 20 237 35 240 q -47 297 -47 250 q -50 311 -50 297 q 23 452 -50 347 q 142 639 92 575 q 189 652 161 647 m -64 -294 q -26 -332 -55 -332 l -23 -332 q 96 -186 43 -332 q 115 -56 104 -151 l 113 -56 q -4 -137 47 -83 q -64 -294 -64 -219 z "},"k":{"ha":637,"x_min":0,"x_max":776,"o":"m 342 1291 q 448 1248 412 1280 q 483 1137 483 1206 q 361 724 483 1011 q 494 621 455 724 q 505 553 505 584 q 377 342 505 425 q 410 250 401 315 q 404 149 404 170 l 431 149 q 597 323 500 149 q 632 399 615 355 q 703 448 660 448 q 776 374 776 438 l 776 372 q 651 133 758 275 q 412 0 548 0 q 266 81 311 0 q 255 138 255 131 q 260 250 260 222 q 201 269 232 269 l 176 269 q 146 52 147 113 q 73 3 119 3 q 16 30 39 7 q 0 71 5 46 q 43 637 0 191 q 136 1077 84 913 q 228 1237 181 1192 q 336 1291 277 1285 l 342 1291 m 212 762 l 212 760 l 214 760 q 334 1120 334 1038 l 334 1134 q 258 971 305 1117 q 212 762 231 867 m 228 439 l 231 439 q 355 540 355 488 l 355 572 q 350 578 355 578 l 347 578 q 228 439 286 578 z "},"l":{"ha":561,"x_min":-20,"x_max":690,"o":"m 262 1299 q 362 1256 316 1299 q 403 1120 403 1194 q 148 355 403 915 q 292 149 194 149 l 335 149 q 533 342 436 149 q 579 418 558 414 q 623 431 579 424 q 688 382 663 431 q 690 358 690 368 q 566 117 683 265 q 316 0 450 0 q 23 250 94 0 q -20 591 -20 403 q 104 1194 -20 942 q 262 1299 178 1299 m 132 700 l 132 697 l 134 697 q 254 1115 254 998 l 254 1145 q 183 998 227 1126 q 134 711 134 823 q 132 700 132 711 z "},"m":{"ha":1374,"x_min":0,"x_max":1516,"o":"m 594 727 l 602 727 q 768 575 722 727 l 768 567 q 982 724 870 724 l 990 724 q 1134 597 1093 724 q 1139 540 1139 563 l 1139 515 q 1115 195 1139 480 l 1115 190 q 1128 149 1118 149 l 1145 149 q 1302 290 1204 149 q 1386 431 1348 360 q 1443 453 1416 453 q 1514 388 1514 442 q 1516 380 1516 388 q 1378 144 1502 302 q 1131 0 1261 0 q 979 109 1021 0 q 966 198 966 162 l 993 521 q 979 578 991 578 q 882 467 937 564 q 746 114 817 345 q 716 30 746 83 q 665 8 693 8 q 589 81 589 18 q 637 442 637 317 q 594 581 633 570 q 488 461 540 557 q 326 95 404 324 q 247 11 304 11 q 193 33 212 16 q 168 84 174 50 q 258 510 258 376 l 258 564 q 174 429 228 545 q 114 309 136 309 q 76 296 114 304 q 0 372 0 309 q 92 597 0 418 q 260 716 174 716 l 269 716 q 393 618 359 716 l 399 597 l 401 597 q 594 727 495 727 z "},"n":{"ha":1088,"x_min":-7,"x_max":1238,"o":"m 273 720 l 278 720 q 397 614 366 720 q 406 563 406 572 q 625 720 526 720 l 639 720 q 796 598 752 720 q 807 530 807 561 l 807 522 q 766 229 807 483 q 764 197 764 201 q 802 142 764 151 l 845 142 q 1027 286 911 142 q 1119 427 1090 391 q 1162 441 1149 441 q 1233 392 1211 441 q 1238 370 1233 384 q 1124 172 1237 317 q 826 -7 981 -7 q 639 99 693 -7 q 617 213 617 147 q 661 514 628 320 l 661 536 q 631 574 661 569 q 487 416 576 559 q 289 26 400 278 q 235 -1 277 6 l 232 -1 q 156 75 156 9 q 232 349 216 277 q 256 511 256 451 l 256 557 q 142 368 197 488 q 80 305 122 305 q 69 302 74 305 q -7 378 -7 315 q 102 604 16 463 q 273 720 186 720 z "},"o":{"ha":812,"x_min":0,"x_max":933,"o":"m 404 732 l 412 732 q 632 673 528 732 q 713 437 713 588 l 713 418 q 700 315 713 368 q 784 393 753 340 q 865 445 811 445 q 928 401 906 445 q 933 369 933 382 q 811 206 933 311 q 627 149 712 149 q 323 0 516 0 q 19 195 115 0 q 0 301 0 267 q 127 589 0 432 q 404 732 254 732 m 149 296 l 149 285 q 258 157 149 210 q 320 149 283 149 l 334 149 q 467 195 413 149 q 361 334 395 231 q 347 404 347 378 l 347 439 q 345 442 347 442 l 347 448 l 347 458 q 374 581 347 506 l 372 581 q 222 472 298 567 q 149 296 149 368 m 494 434 l 494 431 q 543 323 494 351 l 551 323 q 567 434 567 379 q 537 556 567 513 q 494 434 494 507 z "},"p":{"ha":898,"x_min":-109,"x_max":1025,"o":"m 203 651 q 269 616 241 651 q 391 651 340 651 l 431 651 q 681 442 581 651 q 708 301 708 353 q 629 73 708 182 l 632 73 q 838 220 788 125 q 882 334 873 286 q 952 377 911 377 q 1025 304 1025 366 q 930 92 1009 199 q 806 -11 859 14 q 524 -90 677 -90 q 269 -33 416 -90 l 269 -35 q 222 -298 250 -199 q 52 -475 167 -475 l 43 -475 q -98 -350 -56 -475 q -109 -239 -109 -300 l -109 -233 q 14 263 -109 -50 q -5 315 -5 280 q 76 469 -5 345 q 141 621 106 534 q 203 651 168 651 m 282 431 l 282 301 q 279 122 282 239 q 277 114 277 117 q 288 117 278 114 q 377 95 360 95 l 393 95 q 513 165 461 95 q 559 307 559 235 l 559 317 q 458 494 559 414 q 407 505 433 505 l 404 505 q 282 431 338 505 m 130 160 q 38 -258 38 -94 q 49 -320 38 -291 q 122 -3 96 -282 q 130 146 130 77 q 133 157 133 156 l 133 160 l 130 160 z "},"q":{"ha":911,"x_min":0,"x_max":1039,"o":"m 385 666 l 423 666 q 689 498 617 666 q 708 381 708 448 q 643 161 708 326 q 572 -216 572 -96 l 572 -229 q 575 -232 572 -232 q 572 -235 575 -235 l 575 -248 l 575 -278 q 597 -321 575 -307 l 608 -321 q 822 102 681 -273 l 898 343 q 966 384 928 384 q 1039 313 1039 372 q 616 -468 821 -468 l 583 -468 q 442 -351 491 -468 q 423 -229 423 -285 q 453 1 423 -140 l 450 1 q 233 -58 350 -58 q 11 134 75 -58 q 0 208 0 179 l 0 248 q 119 528 0 380 q 309 655 187 616 q 385 666 360 666 m 146 224 q 214 94 146 128 q 228 91 219 91 l 252 91 q 458 189 340 91 q 537 316 528 267 q 559 392 559 371 l 559 419 q 469 514 559 479 q 407 519 433 519 q 174 335 256 519 q 146 224 146 297 z "},"r":{"ha":688,"x_min":-115,"x_max":802,"o":"m 20 860 l 45 860 q 199 694 169 860 q 202 656 202 677 q 199 591 199 593 q 316 562 280 578 q 422 420 397 512 q 427 377 427 386 l 406 182 q 433 149 412 149 l 435 149 q 642 361 511 159 q 726 439 675 439 l 734 439 q 802 366 796 439 q 604 76 802 290 q 528 24 531 24 q 435 0 467 0 q 294 71 355 0 q 256 193 256 125 q 278 393 278 350 q 167 448 259 438 q 91 293 132 293 q 61 285 91 290 q -12 358 -12 300 l 28 491 q -115 684 -115 559 l -115 692 q -15 854 -115 809 q 20 860 9 860 m 37 713 l 34 700 l 34 686 q 53 648 34 665 l 53 678 q 37 713 47 713 z "},"s":{"ha":691,"x_min":-14,"x_max":806,"o":"m 296 644 q 464 538 401 644 q 475 479 472 510 q 214 232 475 325 l 214 229 q 366 123 290 164 q 578 237 463 163 q 678 343 667 316 q 730 365 694 358 q 800 319 775 365 q 806 289 800 312 q 629 94 806 222 q 488 15 572 55 l 488 12 q 534 -132 534 -53 q 494 -262 534 -196 q 247 -373 402 -373 l 222 -373 q 65 -324 140 -373 q -14 -172 -14 -265 q 198 53 -14 -45 l 198 56 q 3 324 3 193 l 3 359 q 136 585 3 473 q 296 644 223 644 m 152 368 q 326 479 326 431 l 326 484 q 290 495 300 495 l 288 495 q 206 449 260 495 q 152 368 168 416 m 133 -183 q 255 -227 152 -222 q 382 -151 349 -227 q 385 -129 385 -140 l 385 -115 q 345 -47 385 -84 q 174 -129 272 -70 q 133 -183 133 -165 z "},"t":{"ha":825,"x_min":-102,"x_max":929,"o":"m 376 1226 q 449 1150 435 1226 q 403 836 422 991 q 655 852 625 852 q 723 776 712 852 l 723 773 q 582 700 723 700 q 387 686 544 700 q 368 355 368 507 q 419 81 368 132 q 460 68 444 68 l 476 68 q 736 263 575 68 q 821 366 780 330 q 859 377 837 377 q 929 304 920 377 q 720 30 929 235 q 465 -81 585 -81 q 262 52 326 -81 q 221 331 221 173 l 221 450 q 224 494 221 466 l 224 496 l 221 496 q 88 250 149 338 q 42 233 73 241 q -15 258 2 241 q -31 312 -31 280 q 75 529 -31 340 q 137 670 137 665 q -34 662 2 662 q -99 722 -99 675 q -102 735 -102 722 q -53 800 -102 781 q 199 822 -53 810 q 256 982 210 835 q 305 1180 294 1125 q 373 1223 334 1223 q 376 1226 373 1226 z "},"u":{"ha":1027,"x_min":0,"x_max":1166,"o":"m 157 730 q 225 678 211 730 l 228 659 q 155 358 155 410 q 149 282 149 327 l 149 260 q 209 149 149 162 l 236 149 q 496 448 359 149 q 581 686 543 554 q 646 719 607 719 q 716 648 716 707 q 694 385 694 490 q 757 160 694 209 q 781 155 774 155 l 814 155 q 930 247 863 162 q 1028 404 979 310 q 1090 442 1050 442 q 1161 393 1139 442 q 1166 369 1164 374 q 1034 138 1157 295 q 795 5 922 5 l 792 5 q 578 171 637 5 q 562 239 562 222 l 559 239 q 222 0 407 0 q 57 76 123 0 q 0 277 0 150 q 84 684 0 425 q 157 730 113 730 z "},"v":{"ha":615,"x_min":-34,"x_max":642,"o":"m 42 724 q 110 673 90 724 l 140 439 q 197 201 164 287 q 221 157 217 157 q 324 307 286 226 q 514 686 370 375 q 574 708 533 708 q 636 667 618 708 q 642 635 642 648 q 511 331 642 600 q 370 106 442 197 q 208 0 298 0 q 113 49 163 0 q 45 190 71 106 q -26 567 7 309 l -34 656 q 28 722 -19 722 q 42 724 28 724 z "},"w":{"ha":1140,"x_min":0,"x_max":1280,"o":"m 127 732 q 201 662 201 722 q 149 323 149 447 l 149 266 q 195 152 154 152 q 342 380 249 152 q 431 689 396 532 q 496 719 454 719 q 570 648 570 711 q 529 342 529 448 l 529 326 q 586 149 529 176 l 597 149 q 727 282 650 149 q 673 518 673 427 l 673 562 q 781 727 673 677 q 822 732 807 732 l 838 732 q 952 643 921 732 q 963 572 963 604 l 963 548 q 892 279 963 437 q 966 203 935 203 l 971 203 q 1139 407 1040 203 q 1207 448 1161 448 q 1275 399 1253 448 q 1280 377 1275 394 q 1153 149 1275 305 q 982 57 1062 57 q 968 54 982 54 q 808 136 883 54 q 591 0 710 0 q 453 65 516 0 q 404 157 404 138 q 193 3 302 3 q 22 141 71 3 q 0 290 0 217 q 65 703 0 490 q 127 732 87 732 z "},"x":{"ha":876,"x_min":-20,"x_max":1002,"o":"m 723 727 q 788 670 767 727 l 788 651 q 745 578 788 615 q 506 334 506 338 q 617 165 553 204 q 652 152 636 152 l 669 152 q 807 293 732 162 q 867 418 854 385 q 932 450 891 450 q 1002 377 992 450 l 1002 372 q 880 133 991 296 q 661 3 775 3 q 395 217 496 3 l 392 217 q 178 8 182 8 l 142 0 q 69 73 69 14 q 170 206 69 118 q 335 377 335 372 q 264 559 304 489 l 245 578 q 178 488 212 555 q 115 345 140 409 q 56 312 90 312 l 56 309 q -20 385 -20 322 q 39 548 -1 460 q 148 689 73 618 q 245 724 189 724 l 248 724 q 454 496 380 724 l 457 496 q 685 722 677 722 q 723 727 711 727 z "},"y":{"ha":799,"x_min":0,"x_max":933,"o":"m 92 667 q 146 651 118 667 q 171 600 171 623 q 149 353 149 460 l 149 326 q 225 95 153 132 q 247 92 236 92 l 263 92 q 369 187 303 92 q 480 464 425 283 q 540 643 515 643 q 583 654 540 649 q 659 526 659 654 l 659 418 q 646 176 659 286 q 798 342 754 242 q 860 374 823 374 q 933 298 927 374 q 806 109 933 234 q 749 65 799 106 q 616 -5 700 33 q 534 -250 578 -168 q 274 -461 406 -461 l 260 -461 q 130 -369 167 -461 q 119 -307 119 -317 q 233 -54 119 -196 q 52 68 119 -54 q 0 336 0 184 q 43 646 12 637 q 92 667 58 667 m 269 -296 l 269 -312 l 277 -312 q 418 -144 329 -312 q 442 -79 442 -87 q 274 -274 316 -149 q 269 -296 269 -284 z "},"z":{"ha":711,"x_min":-41,"x_max":822,"o":"m 312 701 l 320 701 q 461 579 417 701 l 467 538 q 418 392 467 473 q 505 316 446 392 q 534 240 534 252 l 537 240 q 665 349 583 264 q 749 411 703 411 q 822 335 811 411 q 760 229 822 301 q 553 77 625 109 q 529 -18 547 77 q 258 -389 444 -261 q 100 -441 178 -441 q -3 -397 47 -441 q -41 -281 -41 -359 q 35 -104 -36 -203 q 206 64 111 -5 q 363 145 286 117 l 401 164 q 363 254 387 236 l 336 254 q 182 172 282 241 q 152 167 163 167 q 81 237 81 178 l 81 243 q 179 351 81 293 q 317 530 317 479 l 317 536 l 312 555 q 168 403 262 537 q 73 289 106 289 q 54 283 54 287 q -3 308 14 292 q -19 362 -19 330 q 168 636 -19 425 q 282 696 248 696 q 312 701 293 701 m 109 -292 l 122 -292 q 331 -96 224 -260 l 372 -15 l 369 -15 q 203 -134 295 -43 q 109 -292 116 -230 z "},"{":{"ha":625,"x_min":0,"x_max":0,"o":""},"|":{"ha":246,"x_min":0,"x_max":0,"o":""},"}":{"ha":625,"x_min":0,"x_max":0,"o":""},"~":{"ha":688,"x_min":0,"x_max":0,"o":""},"¡":{"ha":456,"x_min":0,"x_max":0,"o":""},"¢":{"ha":772,"x_min":0,"x_max":0,"o":""},"£":{"ha":688,"x_min":0,"x_max":0,"o":""},"¤":{"ha":688,"x_min":0,"x_max":0,"o":""},"¥":{"ha":856,"x_min":0,"x_max":0,"o":""},"¦":{"ha":688,"x_min":0,"x_max":0,"o":""},"§":{"ha":688,"x_min":0,"x_max":0,"o":""},"¨":{"ha":694,"x_min":0,"x_max":0,"o":""},"©":{"ha":1135,"x_min":0,"x_max":0,"o":""},"ª":{"ha":439,"x_min":0,"x_max":0,"o":""},"«":{"ha":640,"x_min":0,"x_max":0,"o":""},"¬":{"ha":688,"x_min":0,"x_max":0,"o":""},"®":{"ha":1135,"x_min":0,"x_max":0,"o":""},"¯":{"ha":454,"x_min":0,"x_max":0,"o":""},"°":{"ha":457,"x_min":0,"x_max":0,"o":""},"±":{"ha":688,"x_min":0,"x_max":0,"o":""},"²":{"ha":688,"x_min":0,"x_max":0,"o":""},"³":{"ha":688,"x_min":0,"x_max":0,"o":""},"´":{"ha":694,"x_min":0,"x_max":0,"o":""},"µ":{"ha":800,"x_min":0,"x_max":0,"o":""},"¶":{"ha":694,"x_min":0,"x_max":0,"o":""},"·":{"ha":345,"x_min":0,"x_max":0,"o":""},"¸":{"ha":694,"x_min":0,"x_max":0,"o":""},"¹":{"ha":688,"x_min":0,"x_max":0,"o":""},"º":{"ha":487,"x_min":0,"x_max":0,"o":""},"»":{"ha":640,"x_min":0,"x_max":0,"o":""},"¼":{"ha":1158,"x_min":0,"x_max":0,"o":""},"½":{"ha":1332,"x_min":0,"x_max":0,"o":""},"¾":{"ha":1158,"x_min":0,"x_max":0,"o":""},"¿":{"ha":507,"x_min":0,"x_max":0,"o":""},"À":{"ha":1044,"x_min":0,"x_max":0,"o":""},"Á":{"ha":1044,"x_min":0,"x_max":0,"o":""},"Â":{"ha":1044,"x_min":0,"x_max":0,"o":""},"Ã":{"ha":1044,"x_min":0,"x_max":0,"o":""},"Ä":{"ha":1044,"x_min":0,"x_max":0,"o":""},"Å":{"ha":1044,"x_min":0,"x_max":0,"o":""},"Æ":{"ha":1436,"x_min":0,"x_max":0,"o":""},"Ç":{"ha":949,"x_min":0,"x_max":0,"o":""},"È":{"ha":781,"x_min":0,"x_max":0,"o":""},"É":{"ha":781,"x_min":0,"x_max":0,"o":""},"Ê":{"ha":781,"x_min":0,"x_max":0,"o":""},"Ë":{"ha":781,"x_min":0,"x_max":0,"o":""},"Ì":{"ha":446,"x_min":0,"x_max":0,"o":""},"Í":{"ha":446,"x_min":0,"x_max":0,"o":""},"Î":{"ha":446,"x_min":0,"x_max":0,"o":""},"Ï":{"ha":446,"x_min":0,"x_max":0,"o":""},"Ð":{"ha":1029,"x_min":0,"x_max":0,"o":""},"Ñ":{"ha":1054,"x_min":0,"x_max":0,"o":""},"Ò":{"ha":1095,"x_min":0,"x_max":0,"o":""},"Ó":{"ha":1095,"x_min":0,"x_max":0,"o":""},"Ô":{"ha":1095,"x_min":0,"x_max":0,"o":""},"Õ":{"ha":1095,"x_min":0,"x_max":0,"o":""},"Ö":{"ha":1095,"x_min":0,"x_max":0,"o":""},"×":{"ha":688,"x_min":0,"x_max":0,"o":""},"Ø":{"ha":1095,"x_min":0,"x_max":0,"o":""},"Ù":{"ha":1018,"x_min":0,"x_max":0,"o":""},"Ú":{"ha":1018,"x_min":0,"x_max":0,"o":""},"Û":{"ha":1018,"x_min":0,"x_max":0,"o":""},"Ü":{"ha":1018,"x_min":0,"x_max":0,"o":""},"Ý":{"ha":836,"x_min":0,"x_max":0,"o":""},"Þ":{"ha":760,"x_min":0,"x_max":0,"o":""},"ß":{"ha":848,"x_min":0,"x_max":0,"o":""},"à":{"ha":625,"x_min":0,"x_max":0,"o":""},"á":{"ha":625,"x_min":0,"x_max":0,"o":""},"â":{"ha":625,"x_min":0,"x_max":0,"o":""},"ã":{"ha":625,"x_min":0,"x_max":0,"o":""},"ä":{"ha":625,"x_min":0,"x_max":0,"o":""},"å":{"ha":625,"x_min":0,"x_max":0,"o":""},"æ":{"ha":986,"x_min":0,"x_max":0,"o":""},"ç":{"ha":614,"x_min":0,"x_max":0,"o":""},"è":{"ha":616,"x_min":0,"x_max":0,"o":""},"é":{"ha":616,"x_min":0,"x_max":0,"o":""},"ê":{"ha":616,"x_min":0,"x_max":0,"o":""},"ë":{"ha":616,"x_min":0,"x_max":0,"o":""},"ì":{"ha":349,"x_min":0,"x_max":0,"o":""},"í":{"ha":349,"x_min":0,"x_max":0,"o":""},"î":{"ha":349,"x_min":0,"x_max":0,"o":""},"ï":{"ha":349,"x_min":0,"x_max":0,"o":""},"ð":{"ha":772,"x_min":0,"x_max":0,"o":""},"ñ":{"ha":751,"x_min":0,"x_max":0,"o":""},"ò":{"ha":685,"x_min":0,"x_max":0,"o":""},"ó":{"ha":685,"x_min":0,"x_max":0,"o":""},"ô":{"ha":685,"x_min":0,"x_max":0,"o":""},"õ":{"ha":685,"x_min":0,"x_max":0,"o":""},"ö":{"ha":685,"x_min":0,"x_max":0,"o":""},"÷":{"ha":688,"x_min":0,"x_max":0,"o":""},"ø":{"ha":685,"x_min":0,"x_max":0,"o":""},"ù":{"ha":718,"x_min":0,"x_max":0,"o":""},"ú":{"ha":718,"x_min":0,"x_max":0,"o":""},"û":{"ha":718,"x_min":0,"x_max":0,"o":""},"ü":{"ha":718,"x_min":0,"x_max":0,"o":""},"ý":{"ha":589,"x_min":0,"x_max":0,"o":""},"þ":{"ha":685,"x_min":0,"x_max":0,"o":""},"ÿ":{"ha":589,"x_min":0,"x_max":0,"o":""},"ı":{"ha":349,"x_min":0,"x_max":0,"o":""},"ˆ":{"ha":694,"x_min":0,"x_max":0,"o":""},"ˇ":{"ha":694,"x_min":0,"x_max":0,"o":""},"ˉ":{"ha":694,"x_min":0,"x_max":0,"o":""},"˘":{"ha":694,"x_min":0,"x_max":0,"o":""},"˙":{"ha":694,"x_min":0,"x_max":0,"o":""},"˚":{"ha":694,"x_min":0,"x_max":0,"o":""},"˛":{"ha":694,"x_min":0,"x_max":0,"o":""},"˜":{"ha":694,"x_min":0,"x_max":0,"o":""},"˝":{"ha":694,"x_min":0,"x_max":0,"o":""},"–":{"ha":751,"x_min":0,"x_max":0,"o":""},"—":{"ha":1389,"x_min":0,"x_max":0,"o":""},"‘":{"ha":378,"x_min":0,"x_max":0,"o":""},"’":{"ha":378,"x_min":0,"x_max":0,"o":""},"‚":{"ha":378,"x_min":0,"x_max":0,"o":""},"“":{"ha":617,"x_min":0,"x_max":0,"o":""},"”":{"ha":617,"x_min":0,"x_max":0,"o":""},"„":{"ha":617,"x_min":0,"x_max":0,"o":""},"†":{"ha":688,"x_min":0,"x_max":0,"o":""},"‡":{"ha":688,"x_min":0,"x_max":0,"o":""},"•":{"ha":694,"x_min":0,"x_max":0,"o":""},"…":{"ha":1389,"x_min":0,"x_max":0,"o":""},"‹":{"ha":428,"x_min":0,"x_max":0,"o":""},"›":{"ha":428,"x_min":0,"x_max":0,"o":""},"⁄":{"ha":232,"x_min":0,"x_max":0,"o":""},"₣":{"ha":688,"x_min":0,"x_max":0,"o":""},"₤":{"ha":688,"x_min":0,"x_max":0,"o":""},"₧":{"ha":1375,"x_min":0,"x_max":0,"o":""},"€":{"ha":688,"x_min":0,"x_max":0,"o":""},"№":{"ha":1540,"x_min":0,"x_max":0,"o":""},"™":{"ha":1015,"x_min":0,"x_max":0,"o":""},"∂":{"ha":688,"x_min":0,"x_max":0,"o":""},"∆":{"ha":733,"x_min":0,"x_max":0,"o":""},"∏":{"ha":1027,"x_min":0,"x_max":0,"o":""},"∑":{"ha":818,"x_min":0,"x_max":0,"o":""},"−":{"ha":688,"x_min":0,"x_max":0,"o":""},"√":{"ha":688,"x_min":0,"x_max":0,"o":""},"∞":{"ha":688,"x_min":0,"x_max":0,"o":""},"∫":{"ha":451,"x_min":0,"x_max":0,"o":""},"≈":{"ha":688,"x_min":0,"x_max":0,"o":""},"≤":{"ha":688,"x_min":0,"x_max":0,"o":""},"≥":{"ha":688,"x_min":0,"x_max":0,"o":""},"":{"ha":728,"x_min":0,"x_max":0,"o":""},"":{"ha":733,"x_min":0,"x_max":0,"o":""}}}
